<?xml version="1.0" encoding="utf-8"?>
<!-- Generator: Adobe Illustrator 24.0.2, SVG Export Plug-In . SVG Version: 6.00 Build 0)  -->
<svg version="1.1" id="Capa_1" xmlns="http://www.w3.org/2000/svg" xmlns:xlink="http://www.w3.org/1999/xlink" x="0px" y="0px"
	 viewBox="0 0 800 800" style="enable-background:new 0 0 800 800;" xml:space="preserve">
<style type="text/css">
	.st0{fill:#FFFFFF;}
</style>
<g>
	<g>
		<path class="st0" d="M446.9,382.4c-14.1-0.3-25.3-7.9-31.5-20.4c-3.1-6.2-6.2-12.4-9.3-18.6c-10.1-20.2-20.3-40.4-30.4-60.6
			c-2.7-5.4-5.4-10.7-8.1-16.1c-0.2-0.4-3.7,4.1-4,4.5c-2.5,3.6-4.7,7.4-6.8,11.2c-4.3,7.9-8.6,15.9-12.8,23.8
			c-2.8,5.2-1.1-1.6,3.3-5.3c-3.3,2.8-5.8,5.9-9.6,8.3c-7.1,4.5-15.3,6.7-23.7,6.8c-8.6,0.1-17.6,0.6-26.2-0.1
			c-8.3-0.7-15.9-5.8-19.9-13.1c-2.1-3.8-3.1-8.2-2.9-12.5c0.1-1.8,0.6-3.5,0.9-5.2c-3.5,21.7-12.6,17.5-7,13.1
			c0.9-0.7,1.7-1.4,2.6-2.1c9.5-6.5,23.9-4.1,34.8-4.1c1.6,0,3.2-3.4,4-4.5c2.5-3.6,4.7-7.4,6.8-11.2c6.6-12.1,13.1-24.3,19.7-36.4
			c1.6-3,3.3-6.1,4.9-9.1c0.4-0.8,0.8-1.5,1.2-2.3c2.8-5.3-9.3,12.4-4.3,7.4c10.1-10.2,24.4-13.9,37.9-8.2
			c13.8,5.7,18.9,18.6,25.1,31c7.9,15.7,15.7,31.5,23.6,47.2c5.6,11.2,11.2,22.4,16.8,33.6c0.3,0.5,4.8-5.7,4.8-5.8
			c2.8-4.2,5.3-8.6,7.6-13.1c3.8-7.6,7.7-15.2,11.3-22.9c-1.6,3.4-8.8,12.6-4.3,7.9c1.4-1.5,2.8-2.9,4.4-4.2c3.6-2.9,7.7-5.3,12-6.9
			c5.9-2.1,12-2.7,18.2-2.7c5.7,0,11.3,0,17,0c4.2,0,8.7-0.3,12.8,0.6c8.3,1.9,15.3,8.2,18.1,16.3c1.5,4.3,1.4,8.5,0.7,12.9
			c-0.1,0.4-0.2,0.7-0.3,1.1c2.8-4.8,5.5-9.6,8.3-14.4c-0.8,0.6-1.5,1.5-2.3,2.1c-2.1,1.7-4.4,3.1-6.9,4c-5.3,1.9-11,1.4-16.5,1.4
			c-5.1,0-10.2,0-15.2,0c-1.7,0-4.2,4.8-4.8,5.8c-2.8,4.2-5.3,8.6-7.6,13.1c-5.5,10.9-11,21.8-16.4,32.7c-2.3,4.7-4.8,9.3-7.1,14
			c-2.3,4.6,10.4-13.9,5.1-8.9c-2,1.8-3.9,3.6-6.2,5.1C459.2,380.8,453.1,382.2,446.9,382.4c-1.1,0-2.8,2.9-3.1,3.3
			c-2.1,2.8-3.9,5.9-5.7,9c-1.8,3.1-3.5,6.2-4.9,9.4c-0.2,0.4-1.8,4.3-1.3,4.3c26.3-0.5,37.4-26.7,47.7-47.1
			c6.5-12.8,12.9-25.6,19.4-38.4c-4.1,6.3-8.3,12.6-12.4,18.9c5.5,0,11.1,0,16.6,0c6.3,0,12.3,0.2,18.2-2.7
			c4.9-2.4,8.5-6.2,11.7-10.5c5.5-7.4,10.3-15.7,13.9-24.1c4.3-9.8,4.6-20.7-2.5-29.3c-9.8-12.1-26.2-9.4-40-9.4
			c-6.5,0-12.9,0-19.2,1.8c-10.7,3.1-19.2,10-25.7,18.8c-10.4,14-17.5,30.4-25.2,46c4.1-6.3,8.3-12.6,12.4-18.9
			c-13.2-26.4-26.4-52.7-39.5-79.1c-6.4-12.8-11.6-26.7-26-32.7c-13.7-5.7-29-1.7-39.1,8.8c-7.8,8.1-13.1,18.3-18.4,28.1
			c-7.8,14.4-15.6,28.8-23.4,43.2c3.6-5.2,7.2-10.5,10.7-15.7c-11.6,0-25.9-2.3-36,4.7c-4.5,3.1-7.8,7.6-10.8,12.1
			c-5.2,7.7-10.4,16.3-13.2,25.3c-2.9,9.3-1,19.6,6,26.6c10.1,10.1,26.1,7.4,39,7.4c7.7,0,14.9-1,22-4.2
			c11.5-5.2,19.1-14.9,25.6-25.4c7.1-11.4,13.1-23.6,19.5-35.5c-3.6,5.2-7.2,10.5-10.7,15.7c15.7,31.3,31.4,62.7,47.2,94
			c6.5,13,17.2,21.4,32.2,21.7c2.9,0.1,7.6-10.1,8.8-12.2C441.2,395.1,447.2,382.4,446.9,382.4z"/>
	</g>
</g>
<g>
	<g>
		<path class="st0" d="M740.9,529.1c0-30.2,0-60.4,0-90.6c0-35.7,1.1-71.5-5.2-106.8c-9.8-55-33.6-107.1-68.6-150.7
			c-34.7-43.2-80-77.6-131-99.2c-54.8-23.2-115.5-31.2-174.6-23.5c-65.7,8.6-128.1,37-177.6,81.1c-26.1,23.3-48.1,50.6-66.5,80.3
			c-19.2,30.9-35,64-45.1,99C62.8,351.4,58.9,385,59.1,419c0.1,7.9,0,15.8,0,23.7c0,38.6,0,77.1,0,115.7c0,14.4,0,28.8,0,43.1
			c0,12.3-0.2,24.6,1.8,36.8c9.3,56.4,57.2,100.8,114.2,105.8c26.7,2.3,53.5-2.5,77.1-15.4c27.7-15.2,46.8-40.2,61.5-67.6
			c12.2-22.8,19-46.4,19-72.3c0-17.6,0-35.1,0-52.7c0-22.1-3.3-43.4-13.3-63.5c-12.3-24.8-32.7-45.2-57.5-57.5
			c-25.3-12.6-54.9-16.1-82.7-11.3c-16.4,2.9-32.2,9.1-46.3,18c-1,0.6-9.3,5.8-8.6,6.7c-0.3-0.4,0-2.6,0-3.1c0-4.4,0-8.8,0-13.3
			c0-25.4,0-50.6,4.6-75.8c3-16.4,7.4-32.6,13.2-48.2c2.6-6.9,5.5-13.8,8.8-20.4c0.5-0.9,0.9-1.9,1.4-2.8c1.2-2.3-0.7,1.3,0.5-1
			c0.3-0.5,2.6-4.7,1.5-2.8c0.2-0.4,3.1-5.4,1.9-3.4c0.5-0.9,1.1-1.8,1.6-2.7c0.9-1.4,0.5-0.8,1-1.7c35.4-55,93.5-95.2,156.3-112.2
			c59-16,122.9-12.7,179.8,9.7c51.3,20.2,96.3,55.5,128.3,100.5c32.8,46.2,51.4,101.9,52.5,158.6c0.3,14.4,0.1,28.9,0.1,43.3
			c5-8.4,10.1-16.9,15.1-25.3c-28.7-21.7-65.2-30.1-100.7-24.6c-31.1,4.8-59.4,21.3-79.6,45.4c-12.8,15.3-23.4,33.2-31.4,51.5
			c-6.6,15.1-10.8,31.1-11.6,47.7c-0.9,18.3-0.2,36.7-0.2,55c0,7.7-0.2,15.4,0.3,23c1.1,15.7,5.1,31.2,11.8,45.5
			c13.2,28.1,36.8,50.8,65.3,63c27.6,11.8,60.4,13.5,89.2,5.2c31.4-9.1,56.7-29.8,74.8-56.7c18.5-27.5,32-58.3,32.1-91.9
			c0-18.8,0-37.6,0-56.4C740.9,532.8,740.9,531,740.9,529.1c0-1.6-1.4,0.4-1.8,0.7c-2,2-3.6,5.1-5.1,7.4c-2,3.3-3.9,6.6-5.6,10.1
			c-0.9,1.8-2.7,4.4-2.7,6.4c0.2,16.3,0,32.5,0,48.8c0,21.1-0.7,41.9-9.3,61.6c-0.6,1.5-1.3,2.8-1.5,3.2c-1,2,0.9-1.6-0.2,0.3
			c-1,1.7,0.5-0.8,0.7-1.2c1.2-2-1.1,1.7-0.1,0.1c0.9-1.4-1,1.4-0.3,0.5c-0.2,0.3-1.7,2.4-2.3,3.2c-4.4,5.9-9.5,11.2-15,16.1
			c-11,9.8-23.6,17.8-37.3,23.2c-26.1,10.3-56.5,11.8-83.6,4.6c-55.5-14.8-94.2-66.3-94.3-123.5c0-18,0-36.1,0-54.1
			c0-8.4,0.1-16.8,1.3-25.2c1-7.3,2.7-14.5,5.1-21.5c1-3,2.2-6,3.5-9c0.1-0.1,1.2-2.6,0.8-1.6c-0.5,1,1.1-2.1,0.3-0.6
			c1.4-2.5-2.1,3.1-0.3,0.5c-0.9,1.3,0.3-0.4,0.7-1c0.8-1.1,1.6-2.3,2.5-3.4c2.4-3,4.9-6,7.6-8.7c4.8-5,10.1-9.6,15.8-13.8
			c12.1-8.9,25.7-15.7,40.2-19.8c30.3-8.6,64.6-6.1,93.1,7.4c8.1,3.8,15.7,8.5,22.8,13.9c1.4,1.1,15.1-22.2,15.1-25.3
			c0-19.5,0.7-39.2-0.8-58.7c-2.4-32.4-10.2-64.4-23.3-94.1c-25.5-58-70.5-106.6-126.2-136.6c-60.7-32.7-132.6-42.1-199.8-26.6
			c-36.3,8.3-70.9,23.9-101,45.7c-32.3,23.3-58.6,53.4-79.7,87.1c-21.8,34.8-38.5,72.8-46.1,113.3c-5.3,28.3-5,56.7-5,85.3
			c0,3.1,0,6.3,0,9.4c-0.1,0.8,0.1,0.9,0.7,0.4c35.2-26.6,83.5-33.3,124.8-17.9c36.5,13.6,65.5,44.1,77.1,81.3
			c8.1,26.1,5.7,54.5,5.7,81.5c0,10.7,0.4,21.6-0.8,32.2c-1.1,10-3.4,19.9-6.9,29.3c-0.7,2-1.5,3.9-2.4,5.8c-1,2.2-0.6,1.3-0.4,0.8
			c-1.8,3.9,1.3-2.2-0.8,1.5c0.2-0.4,2.7-4.1,0.7-1.2c1.3-1.9,0,0-0.2,0.3c1-1.5-1.5,2.1-1.3,1.8c-0.7,1-1.4,1.9-2.1,2.8
			c-24.5,31-62.2,46.7-101.1,46.6c-39.1-0.1-76.3-17.7-100.6-48.5c-12.1-15.3-20.5-33.4-24.6-52.4c-2.4-11.4-2.6-22.9-2.6-34.5
			c0-18.1,0-36.3,0-54.4c0-44.7,0.2-89.4,0-134.1C74,350.7,80.8,307.3,97,266.1c3.9-9.9,8.8-20.2,13.3-28.6c0.1-0.2,1.4-2.6,0.4-0.7
			c0.8-1.4,1.6-2.8,2.4-4.1c2.6-4.4-0.7,1.2,0.8-1.4c0.7-1.1,1.4-2.3,2.1-3.4c2.1-3.4,5.8-8.8,8.8-13c13.7-19,29.6-36.3,47.2-51.8
			c69.6-61.2,163.2-89.9,255.1-79.9c78.6,8.5,152.6,45.5,206.9,102.9c54.6,57.6,87.6,134,91.4,213.3c0.9,19.6,0.4,39.3,0.4,58.9
			c0,26.7,0,53.4,0,80.1c0,5.1,0,10.2,0,15.3c0,1.6,1.4-0.4,1.8-0.7c2-2,3.6-5.1,5.1-7.4c2-3.3,3.9-6.6,5.6-10.1
			C739.1,533.7,740.9,531.2,740.9,529.1z"/>
	</g>
</g>
</svg>
